<svg xmlns="http://www.w3.org/2000/svg" width="65" height="60" stroke="none" stroke-linecap="round" stroke-linejoin="round" fill="#8c1515" fill-rule="nonzero"><path d="M14.518 59.33C6.493 59.321-.006 52.809 0 44.785s6.515-14.526 14.54-14.523 14.53 6.51 14.53 14.534c-.01 8.03-6.52 14.534-14.55 14.534zm34.932 0c-8.025-.01-14.524-6.52-14.518-14.545s6.515-14.526 14.54-14.523S64 36.77 64 44.795c-.01 8.03-6.52 14.534-14.55 14.534zM31.992 29.069c-8.027 0-14.534-6.507-14.534-14.534S23.965 0 31.992 0s14.534 6.508 14.534 14.535a14.52 14.52 0 0 1-14.534 14.534z"/></svg>