<?xml version="1.0" encoding="UTF-8"?>
<svg xmlns="http://www.w3.org/2000/svg" xmlns:xlink="http://www.w3.org/1999/xlink" viewBox="0 0 400 400" width="400px" height="400px">
<g id="surface30591224">
<path style=" stroke:none;fill-rule:nonzero;fill:rgb(100%,100%,100%);fill-opacity:1;" d="M 328 254.453125 L 328 145.546875 C 328 133.515625 321.589844 122.390625 311.15625 116.375 L 216.84375 61.921875 C 206.421875 55.902344 193.589844 55.902344 183.160156 61.921875 L 88.84375 116.375 C 78.421875 122.390625 72 133.515625 72 145.546875 L 72 254.457031 C 72 266.488281 78.421875 277.613281 88.84375 283.628906 L 183.15625 338.078125 C 193.585938 344.097656 206.421875 344.097656 216.839844 338.078125 L 311.15625 283.628906 C 321.589844 277.609375 328 266.484375 328 254.453125 "/>
<path style=" stroke:none;fill-rule:nonzero;fill:rgb(26.666668%,26.666668%,27.058825%);fill-opacity:1;" d="M 307.371094 133.425781 L 213.382812 185.644531 C 205.125 190.230469 200 198.933594 200 208.382812 L 200 328.472656 C 200 335.71875 207.792969 340.308594 214.136719 336.789062 L 315.871094 280.265625 C 319.226562 277.460938 321.976562 274.066406 324 270.265625 L 324 143.214844 C 324 134.679688 314.832031 129.277344 307.371094 133.425781 Z M 307.371094 133.425781 "/>
<path style=" stroke:none;fill-rule:nonzero;fill:rgb(100%,100%,100%);fill-opacity:1;" d="M 240.367188 211.113281 C 241.125 210.726562 241.746094 211.199219 241.757812 212.1875 L 241.835938 220.273438 C 245.214844 218.933594 248.15625 218.566406 250.824219 219.1875 C 251.402344 219.335938 251.660156 220.125 251.425781 221.058594 L 249.644531 228.21875 C 249.496094 228.765625 249.199219 229.3125 248.835938 229.648438 C 248.675781 229.804688 248.519531 229.914062 248.363281 230 C 248.121094 230.121094 247.882812 230.160156 247.664062 230.117188 C 246.445312 229.839844 243.554688 229.207031 239.007812 231.511719 C 234.238281 233.933594 232.566406 238.070312 232.601562 241.144531 C 232.640625 244.824219 234.527344 245.941406 241.035156 246.054688 C 249.707031 246.195312 253.453125 249.992188 253.539062 258.714844 C 253.636719 267.300781 249.050781 276.507812 242.046875 282.148438 L 242.203125 290.160156 C 242.210938 291.125 241.59375 292.226562 240.828125 292.613281 L 236.085938 295.339844 C 235.328125 295.722656 234.703125 295.253906 234.695312 294.289062 L 234.617188 286.410156 C 230.550781 288.105469 226.445312 288.507812 223.816406 287.457031 C 223.316406 287.261719 223.101562 286.527344 223.304688 285.691406 L 225.019531 278.457031 C 225.15625 277.890625 225.457031 277.316406 225.867188 276.953125 C 226.007812 276.8125 226.164062 276.703125 226.3125 276.628906 C 226.578125 276.492188 226.84375 276.460938 227.070312 276.546875 C 229.898438 277.496094 233.519531 277.050781 237.007812 275.289062 C 241.429688 273.050781 244.390625 268.535156 244.34375 264.050781 C 244.304688 259.988281 242.101562 258.300781 236.742188 258.261719 C 229.929688 258.273438 223.570312 256.941406 223.464844 246.898438 C 223.375 238.632812 227.675781 230.035156 234.480469 224.601562 L 234.398438 216.519531 C 234.390625 215.527344 235 214.441406 235.777344 214.039062 Z M 240.367188 211.113281 "/>
<path style=" stroke:none;fill-rule:nonzero;fill:rgb(30.19608%,66.274512%,14.509805%);fill-opacity:1;" d="M 286.289062 274.558594 L 263.472656 287.300781 C 263.035156 287.542969 262.496094 287.222656 262.496094 286.726562 L 262.496094 281.71875 C 262.496094 281.269531 262.738281 280.851562 263.136719 280.628906 L 285.953125 267.886719 C 286.394531 267.644531 286.9375 267.964844 286.9375 268.46875 L 286.9375 273.460938 C 286.9375 273.921875 286.6875 274.335938 286.289062 274.558594 "/>
<path style=" stroke:none;fill-rule:nonzero;fill:rgb(12.156863%,12.941177%,16.862746%);fill-opacity:1;" d="M 176 312.851562 C 175.660156 312.851562 175.316406 312.769531 175 312.585938 L 167 307.964844 C 166.042969 307.410156 165.714844 306.1875 166.269531 305.230469 C 166.820312 304.273438 168.042969 303.953125 169 304.5 L 177 309.121094 C 177.957031 309.671875 178.285156 310.894531 177.730469 311.851562 C 177.363281 312.496094 176.6875 312.851562 176 312.851562 Z M 160 303.617188 C 159.660156 303.617188 159.316406 303.53125 159 303.347656 L 114.628906 277.730469 C 113.671875 277.179688 113.34375 275.957031 113.894531 275 C 114.449219 274.042969 115.671875 273.722656 116.628906 274.269531 L 161 299.882812 C 161.957031 300.4375 162.285156 301.660156 161.730469 302.617188 C 161.363281 303.257812 160.6875 303.617188 160 303.617188 Z M 108 273.59375 C 107.660156 273.59375 107.316406 273.507812 107 273.324219 L 98.578125 268.464844 C 93.289062 265.40625 90 259.714844 90 253.605469 L 90 184 C 90 182.894531 90.894531 182 92 182 C 93.105469 182 94 182.894531 94 184 L 94 253.605469 C 94 258.289062 96.519531 262.65625 100.578125 265 L 109 269.859375 C 109.957031 270.410156 110.285156 271.636719 109.730469 272.59375 C 109.363281 273.234375 108.6875 273.59375 108 273.59375 Z M 92 178 C 90.894531 178 90 177.105469 90 176 L 90 164 C 90 162.894531 90.894531 162 92 162 C 93.105469 162 94 162.894531 94 164 L 94 176 C 94 177.105469 93.105469 178 92 178 Z M 92 158 C 90.894531 158 90 157.105469 90 156 L 90 146.398438 C 90 145.296875 90.894531 144.398438 92 144.398438 C 93.105469 144.398438 94 145.296875 94 146.398438 L 94 156 C 94 157.105469 93.105469 158 92 158 Z M 92 158 "/>
<path style=" stroke:none;fill-rule:nonzero;fill:rgb(12.156863%,12.941177%,16.862746%);fill-opacity:1;" d="M 311.421875 114.210938 L 218.578125 60.617188 C 207.316406 54.109375 192.714844 54.101562 181.421875 60.617188 L 88.574219 114.214844 C 77.117188 120.835938 70 133.167969 70 146.398438 L 70 253.609375 C 70 266.839844 77.117188 279.171875 88.578125 285.789062 L 181.429688 339.386719 C 187.074219 342.644531 193.5 344.367188 200.003906 344.367188 C 206.515625 344.367188 212.941406 342.644531 218.585938 339.386719 L 311.429688 285.789062 C 322.882812 279.175781 330.007812 266.847656 330.007812 253.609375 L 330.007812 146.398438 C 330 133.164062 322.882812 120.832031 311.421875 114.210938 Z M 185.421875 332.457031 L 92.574219 278.855469 C 83.585938 273.664062 77.996094 263.992188 77.996094 253.609375 L 77.996094 146.398438 C 77.996094 136.015625 83.578125 126.339844 92.574219 121.144531 L 185.421875 67.546875 C 189.847656 64.992188 194.886719 63.640625 200 63.640625 C 205.117188 63.640625 210.15625 64.992188 214.578125 67.546875 L 307.425781 121.144531 C 311.628906 123.570312 315.046875 127.003906 317.539062 131.003906 C 313.910156 129.585938 309.894531 129.734375 306.398438 131.679688 L 212.414062 183.894531 C 203.523438 188.832031 198 198.214844 198 208.382812 L 198 328.472656 C 198 331.425781 199.128906 334.140625 201.050781 336.226562 C 195.636719 336.414062 190.164062 335.191406 185.421875 332.457031 Z M 307.421875 278.855469 L 214.574219 332.457031 C 212.175781 333.839844 209.578125 334.820312 206.902344 335.453125 C 206.5 335.300781 206.089844 335.164062 205.703125 334.9375 C 203.382812 333.570312 202 331.152344 202 328.46875 L 202 208.382812 C 202 199.667969 206.734375 191.625 214.359375 187.390625 L 308.34375 135.175781 C 309.746094 134.394531 311.277344 134.007812 312.808594 134.007812 C 314.40625 134.007812 316.011719 134.4375 317.464844 135.289062 C 319.132812 136.269531 320.339844 137.722656 321.109375 139.398438 C 321.671875 141.667969 322 144.011719 322 146.398438 L 322 253.609375 C 322 263.996094 316.414062 273.667969 307.421875 278.855469 Z M 307.421875 278.855469 "/>
</g>
</svg>
